# xmcd
#
# Track frame offsets:
#  150
#  10569
#  22829
#  36538
#  52634
#  65669
#  75901
#  92583
#  107272
#  120306
#  132014
#  144086
#  158374
#  172094
#  196954
#  209408
#  220318
#  229710
#
# Disc length: 3199 seconds
#
# Revision: 0
# Processed by: cddbd v1.5.2PL0 Copyright (c) Steve Scherf et al.
# Submitted via: AltoMP3_Maker 3.0
#
DISCID=d30c7d12
DTITLE=Dolly Parton - Dolly Parton - The Gospel Collection
DYEAR=1900
DGENRE=Country
TTITLE0=God's Colouring Book
TTITLE1=Sacred Memories
TTITLE2=Comin' for to Carry Me Home
TTITLE3=How Great Thou Art
TTITLE4=Golden Streets of Glory
TTITLE5=I Believe
TTITLE6=Preacher Tom
TTITLE7=The Seeker
TTITLE8=Would You Know Him (If You Saw Him)
TTITLE9=Wings of A Dove
TTITLE10=The Master's Hand
TTITLE11=Everything Is Beautiful (In Its Own Way)
TTITLE12=Daddy Was An Old Time Preacher Man
TTITLE13=There
TTITLE14=Heaven's Just A Prayer Away
TTITLE15=Letter to Heaven
TTITLE16=Lord Hold My Hand
TTITLE17=Yes I See God
EXTD=
EXTT0=
EXTT1=
EXTT2=
EXTT3=
EXTT4=
EXTT5=
EXTT6=
EXTT7=
EXTT8=
EXTT9=
EXTT10=
EXTT11=
EXTT12=
EXTT13=
EXTT14=
EXTT15=
EXTT16=
EXTT17=
PLAYORDER=
